<svg width="176" height="40" viewBox="0 0 176 40" fill="none" xmlns="http://www.w3.org/2000/svg">
<g filter="url(#filter0_i_1_20)">
<path d="M17.447 5.2H34.211V8.456H21.099V18.532H33.111V21.788H21.099V32.744H34.431V36H17.447V5.2ZM54.5449 26.364L55.6009 31.028H55.6449L56.7889 26.276L64.2249 5.2H67.8769L56.2169 36.484H54.5889L42.7089 5.2H46.7129L54.5449 26.364ZM83.6007 33.448C84.598 33.448 85.522 33.3013 86.3727 33.008C87.2234 32.7147 87.9567 32.2893 88.5727 31.732C89.1887 31.1453 89.6727 30.456 90.0247 29.664C90.3767 28.872 90.5527 28.0067 90.5527 27.068C90.5527 25.0147 89.9367 23.4893 88.7047 22.492C87.502 21.4947 85.83 20.996 83.6887 20.996H80.4327V19.72L86.7687 9.952L88.7927 8.016L85.9327 8.456H77.2207V5.2H92.9287V6.476L85.9327 16.992L84.3927 18.268V18.356L85.8887 18.048C87.062 18.0773 88.1474 18.2973 89.1447 18.708C90.142 19.0893 91.0074 19.6613 91.7407 20.424C92.474 21.1573 93.046 22.052 93.4567 23.108C93.8674 24.1347 94.0727 25.308 94.0727 26.628C94.0727 28.212 93.794 29.62 93.2367 30.852C92.6794 32.084 91.9167 33.1253 90.9487 33.976C90.01 34.7973 88.8954 35.428 87.6047 35.868C86.314 36.308 84.95 36.528 83.5127 36.528C82.1927 36.528 81.0047 36.4253 79.9487 36.22C78.8927 36.0147 77.9687 35.7507 77.1767 35.428L78.1007 32.304C78.7754 32.6267 79.5674 32.9053 80.4767 33.14C81.4154 33.3453 82.4567 33.448 83.6007 33.448ZM112.065 15.848L109.689 11.404H109.513L109.953 15.848V36H106.521V4.716H108.457L123.197 25.264L125.485 29.488H125.705L125.221 25.264V5.2H128.653V36.484H126.717L112.065 15.848ZM161.515 8.456H151.923V36H148.271V8.456H138.679V5.2H161.515V8.456Z" fill="white"/>
</g>
<defs>
<filter id="filter0_i_1_20" x="17.447" y="4.716" width="145.068" height="32.812" filterUnits="userSpaceOnUse" color-interpolation-filters="sRGB">
<feFlood flood-opacity="0" result="BackgroundImageFix"/>
<feBlend mode="normal" in="SourceGraphic" in2="BackgroundImageFix" result="shape"/>
<feColorMatrix in="SourceAlpha" type="matrix" values="0 0 0 0 0 0 0 0 0 0 0 0 0 0 0 0 0 0 127 0" result="hardAlpha"/>
<feOffset dx="1" dy="1"/>
<feGaussianBlur stdDeviation="2.5"/>
<feComposite in2="hardAlpha" operator="arithmetic" k2="-1" k3="1"/>
<feColorMatrix type="matrix" values="0 0 0 0 0 0 0 0 0 0 0 0 0 0 0 0 0 0 1 0"/>
<feBlend mode="normal" in2="shape" result="effect1_innerShadow_1_20"/>
</filter>
</defs>
</svg>
