<?xml version="1.0" encoding="UTF-8"?>
<svg width="176px" height="40px" viewBox="0 0 176 40" version="1.1" xmlns="http://www.w3.org/2000/svg" xmlns:xlink="http://www.w3.org/1999/xlink">
    <title>00_Atoms / 01_Logo /White</title>
    <g id="00_Atoms-/-01_Logo-/White" stroke="none" stroke-width="1" fill="none" fill-rule="evenodd">
        <g id="00_Atoms-/-01_Logo-/Couleur">
            <path d="M13.9744361,11.4564706 C14.6368969,11.5561086 15.0050611,12.0027149 15.2671195,12.5659729 C15.8068589,13.7262443 16.3410898,14.8889593 16.8760431,16.0514027 C20.2316921,23.3430769 23.5877927,30.6344796 26.9385654,37.9284163 C27.0549656,38.1817195 27.1173648,38.4599095 27.2048681,38.7265158 C27.164864,39.2652489 26.9257424,39.6442534 26.4648374,39.861991 C25.9925541,40.0851584 25.5146721,40.0447059 25.1279959,39.6885068 C24.907296,39.4852489 24.7246136,39.2138462 24.5978286,38.9391855 C23.6012478,36.7797285 22.6178512,34.6142081 21.644117,32.4443439 C21.5306968,32.1915837 21.3930754,32.1115837 21.1219867,32.1119457 C16.0803858,32.12 11.0386947,32.121267 5.99709389,32.1093213 C5.68672345,32.1085973 5.54467727,32.2100452 5.42331042,32.4821719 C4.43901077,34.6896833 3.44107542,36.8911312 2.44666188,39.0942081 C2.19878091,39.6434389 1.82583068,40.0043439 1.17303232,39.9832579 C0.369247819,39.9572851 -0.166879425,39.2752036 0.0474089277,38.4945701 C0.135544382,38.1733937 0.286169318,37.8675113 0.426228835,37.5630769 C4.24657568,29.2613575 8.0692704,20.960724 11.8916039,12.6599095 C12.3536829,11.6564706 12.964039,11.3045249 13.9744361,11.4564706 Z M131.235136,11.7117647 C133.168517,11.7258824 135.040493,12.1075113 136.756244,13.0433484 C139.647737,14.6209955 141.039302,17.0854299 140.884885,20.3752941 C140.734079,23.60181 139.041806,25.7968326 136.141283,27.0656109 C135.262637,27.4498643 134.300913,27.6440724 133.377116,27.9249774 C133.30668,27.9464253 133.234438,27.9640724 133.10079,28.0006335 C134.020975,29.2839819 134.902329,30.5136652 135.78549,31.7426244 C137.242073,33.7712217 138.698656,35.800181 140.157948,37.8273303 C140.640164,38.498371 140.558892,39.2452489 139.94393,39.7123982 C139.331678,40.1767421 138.56862,40.0679638 138.074664,39.3939367 C136.858286,37.7342081 135.663581,36.0586425 134.461652,34.3885973 C133.086342,32.4770136 131.71374,30.5623529 130.3294,28.6572851 C130.239097,28.5335747 130.05217,28.4071493 129.909492,28.4064253 C127.194992,28.3918552 124.47959,28.3959276 121.764187,28.3969231 C121.713617,28.3969231 121.663951,28.4074208 121.563715,28.4186425 L121.563715,28.8739367 C121.563715,32.1264253 121.564618,35.378914 121.562812,38.6314027 C121.561909,39.2678733 121.219661,39.7426244 120.648045,39.9257014 C120.117065,40.0956561 119.513843,39.9138462 119.218553,39.4296833 C119.077681,39.199276 118.98196,38.8995475 118.98196,38.6310407 C118.970221,29.7806335 118.972027,20.9302262 118.97293,12.079819 C118.97293,11.9663348 118.990087,11.8529412 119.001827,11.7032579 L119.443407,11.7032579 L119.443407,11.7032579 C123.374284,11.7032579 127.305162,11.6830769 131.235136,11.7117647 Z M63.2157866,12.7744796 C63.2188568,21.4570136 63.2190375,30.1395475 63.215606,38.8221719 C63.2152447,39.7602715 62.2297712,40.2827149 61.3929359,39.780181 C61.1450549,39.6313122 60.9270641,39.4084163 60.7425757,39.1809955 C57.0895598,34.6777376 53.443136,30.1691403 49.7961703,25.6609955 L42.0801642,16.120724 L42.0801642,16.120724 C42.0172232,16.0428959 41.944078,15.9733032 41.8037476,15.8226244 L41.8030251,38.5860633 L41.8030251,38.5860633 C41.8028445,39.4578281 41.2942596,39.9984615 40.4991442,39.980724 C39.8477907,39.9662443 39.3504033,39.499638 39.2946865,38.8443439 C39.2825859,38.7027149 39.2895393,38.5593665 39.2895393,38.4168326 L39.2893586,13.1466968 L39.2893586,13.1466968 C39.2893586,12.3419005 39.5650528,11.8689593 40.1562648,11.658733 C40.8360636,11.4169231 41.5937034,11.6133032 42.0505449,12.1738462 C43.285254,13.6888688 44.5131904,15.2094118 45.7423007,16.7290498 C50.625962,22.7672398 55.508901,28.8060633 60.3930139,34.8438914 C60.4624566,34.9297738 60.5434582,35.0062443 60.7036552,35.1774661 L60.7036552,34.5528507 C60.7037455,27.399457 60.7036552,20.2460633 60.7041067,13.0926697 C60.704197,12.2428959 60.9810652,11.7866968 61.6070436,11.5977376 C62.4217547,11.3517647 63.2155156,11.9230769 63.2157866,12.7744796 Z M174.08197,11.7032579 C175.186372,11.7032579 175.757086,12.1150226 175.761601,12.9161991 C175.766116,13.7202715 175.1647,14.1564706 174.050364,14.1564706 L158.099292,14.1564706 L158.099292,14.1564706 L158.099292,24.4304072 L158.099292,24.4304072 L158.603181,24.4304072 C162.935003,24.4304977 167.265921,24.4297738 171.597742,24.4312217 C172.349964,24.4314932 172.838502,24.8035294 172.946865,25.4462443 C173.069677,26.1706787 172.542309,26.8336652 171.806342,26.8504977 L171.108703,26.8587699 L171.108703,26.8587699 L169.712222,26.8550226 L169.712222,26.8550226 L158.102001,26.8550226 L158.102001,26.8550226 L158.102001,37.3834389 L158.102001,37.3834389 C158.274479,37.3834389 158.448763,37.3835294 158.622145,37.3835294 C163.832612,37.3834389 169.043079,37.3929412 174.254448,37.3730317 C175.019312,37.3701357 175.618019,37.5450679 175.960267,38.278009 L175.960267,38.9 L175.960267,38.9 C175.666783,39.5938462 175.15296,39.8393665 174.398933,39.836852 C168.257445,39.8162896 162.115957,39.8252489 155.974469,39.8252489 L155.494058,39.8252489 L155.494058,39.8252489 L155.494058,11.7032579 L155.494058,11.7032579 L174.08197,11.7032579 L174.08197,11.7032579 Z M90.1010734,11.7174661 C94.0629246,11.8048869 97.6082093,13.058371 100.498799,15.8672398 C102.607368,17.9169231 103.859867,20.4367421 104.306865,23.3382805 C104.77373,26.3685068 104.444125,29.3130317 103.0643,32.0744796 C101.16704,35.8716742 98.0515957,38.1744796 94.0078399,39.2751131 C92.5936993,39.6600905 91.1470498,39.8300452 89.6793597,39.8270975 C86.6542186,39.821086 83.6290775,39.8252489 80.6039364,39.8252489 L80.1662391,39.8252489 L80.1662391,39.8252489 L80.1662391,11.7224434 L80.1662391,11.7224434 C80.3092786,11.7154751 80.43498,11.7041629 80.5605911,11.7040724 C83.7408722,11.7030769 86.9223273,11.6472398 90.1010734,11.7174661 Z M83.1362052,14.1574661 C83.023688,14.1574661 82.9111709,14.1705882 82.7803222,14.178733 L82.7803222,37.3835294 L82.7803222,37.3835294 L83.2656993,37.3835294 L83.2656993,37.3835294 C85.3469061,37.3835294 87.4286547,37.4107692 89.509139,37.3715837 C90.4995793,37.3529412 91.5010364,37.2853394 92.4726937,37.1047964 C95.1158543,36.6135747 97.3806465,35.4046154 99.1722524,33.3557466 C102.272345,29.8096833 102.616398,24.0840724 100.454551,20.199095 C98.2024012,16.1511312 94.5794561,14.3386425 90.0774141,14.1714932 C87.7666578,14.0857014 85.4501221,14.1561991 83.1362052,14.1574661 Z M13.5615721,14.6945701 C11.2537055,19.75819 8.99550539,24.7130317 6.72854592,29.6870588 L20.359019,29.6870588 L20.359019,29.6870588 C18.0943171,24.6921267 15.8511975,19.7446154 13.5615721,14.6945701 Z M121.775926,14.1584615 C121.715423,14.1584615 121.65492,14.1752036 121.583581,14.1855204 L121.583581,26.0004525 L121.583581,26.0004525 L121.942083,26.0004525 L121.942083,26.0004525 C124.940133,26.0004525 127.938184,26.0111312 130.936234,25.9951131 C132.130939,25.9886878 133.303971,25.7911312 134.420113,25.3485068 C136.667748,24.4569231 138.105367,22.899276 138.296809,20.400543 C138.446711,18.4353846 137.823622,16.7745701 136.181919,15.5941176 C134.812027,14.6095023 133.22902,14.2095023 131.583704,14.181629 C128.314746,14.1262443 125.044885,14.160181 121.775926,14.1584615 Z M170.374141,0.0224434389 C170.77057,0.21239819 171.159774,0.410226244 171.286198,0.886153846 C171.455064,1.5199095 171.159774,2.07719457 170.504177,2.33647059 C168.572601,3.09954751 166.63922,3.85782805 164.706742,4.61809955 C163.398256,5.13285068 162.095187,5.66171946 160.78038,6.15809955 C159.867419,6.50262443 159.024895,5.79402715 159.206403,4.85638009 C159.293094,4.41085973 159.57845,4.14171946 159.995649,3.97809955 C162.613525,2.9521267 165.229595,1.92027149 167.843858,0.887330317 C168.559959,0.604434389 169.272447,0.311040724 169.985839,0.0224434389 L170.374141,0.0224434389 L170.374141,0.0224434389 Z" id="Combined-Shape" fill="#FFFFFF" fill-rule="nonzero"></path>
            <g id="Group-8"></g>
        </g>
    </g>
</svg>